<?xml version="1.0" standalone="no"?>
<!DOCTYPE svg PUBLIC "-//W3C//DTD SVG 20010904//EN"
 "http://www.w3.org/TR/2001/REC-SVG-20010904/DTD/svg10.dtd">
<svg version="1.0" xmlns="http://www.w3.org/2000/svg"
 width="1000.000000pt" height="1000.000000pt" viewBox="0 0 1000.000000 1000.000000"
 preserveAspectRatio="xMidYMid meet">
<metadata>
Created by potrace 1.14, written by Peter Selinger 2001-2017
</metadata>
<g transform="translate(0.000000,1000.000000) scale(0.100000,-0.100000)"
fill="#000000" stroke="none">
<path d="M0 5000 l0 -5000 5000 0 5000 0 0 5000 0 5000 -5000 0 -5000 0 0
-5000z m1515 4480 c50 -5 120 -15 158 -21 l67 -12 0 -274 0 -273 -64 0 -64 0
-37 109 c-44 134 -103 255 -144 299 -100 107 -269 91 -364 -34 -91 -120 -135
-320 -144 -654 -13 -500 46 -743 201 -822 46 -23 148 -34 220 -24 l46 7 -1
312 0 312 -90 57 c-84 55 -89 59 -89 93 l0 35 275 0 275 0 0 -439 c0 -410 -1
-440 -17 -445 -73 -22 -280 -40 -458 -40 -228 -1 -283 9 -422 75 -251 119
-383 399 -383 807 0 341 97 604 281 761 168 143 438 204 754 171z m2135 -871
l0 -800 25 -37 c14 -20 25 -47 25 -59 l0 -23 -235 0 c-230 0 -235 0 -235 21 0
11 11 37 25 57 l25 37 0 728 0 727 -26 40 c-48 72 -45 73 181 91 110 9 203 17
208 18 4 0 7 -359 7 -800z m1320 -5 l0 -795 25 -37 c14 -20 25 -47 25 -59 l0
-23 -184 0 c-143 0 -185 3 -189 13 -3 8 -8 44 -12 80 -4 37 -10 67 -14 67 -4
0 -13 -16 -20 -37 -22 -59 -86 -121 -144 -138 -146 -43 -314 6 -416 121 -117
133 -179 414 -153 690 34 355 171 537 429 569 57 7 156 -13 200 -42 14 -9 39
-35 54 -57 l29 -39 0 172 c0 167 -1 173 -25 209 -14 20 -25 46 -25 58 0 20 8
21 203 35 111 8 205 13 210 11 4 -2 7 -361 7 -798z m-2309 431 c196 -56 333
-225 384 -470 20 -101 21 -303 1 -405 -31 -159 -87 -270 -184 -362 -249 -238
-649 -160 -802 155 -90 188 -112 442 -55 662 37 143 130 286 230 355 118 81
283 107 426 65z m3344 14 c33 -6 75 -19 95 -29 43 -22 102 -83 125 -128 l16
-34 29 46 c59 92 174 149 305 150 89 0 148 -16 207 -59 58 -43 104 -131 118
-230 5 -38 10 -270 10 -515 l0 -445 25 -37 c14 -20 25 -46 25 -57 0 -21 -5
-21 -235 -21 l-235 0 0 23 c0 12 11 39 25 59 l25 37 0 493 c0 307 -4 507 -10
530 -14 50 -52 78 -104 78 -56 0 -99 -29 -127 -87 l-24 -48 -3 -484 -3 -484
26 -38 c14 -21 25 -48 25 -59 0 -19 -6 -20 -235 -20 -230 0 -235 0 -235 21 0
11 11 37 25 57 l25 37 0 503 c0 540 -1 551 -51 586 -30 21 -93 21 -129 -1 -16
-9 -41 -39 -57 -67 l-28 -51 -3 -482 -3 -483 26 -37 c14 -21 25 -48 25 -60 l0
-23 -235 0 c-230 0 -235 0 -235 21 0 11 11 37 25 57 l25 37 0 541 0 541 -25
23 c-14 13 -25 34 -25 46 0 25 -3 24 200 49 69 8 141 17 161 20 l36 5 7 -70 7
-70 32 42 c43 56 108 95 188 112 81 18 92 18 164 5z m1822 -15 c167 -43 260
-144 284 -307 5 -34 9 -256 9 -492 l0 -430 25 -37 c14 -20 25 -46 25 -57 0
-20 -5 -21 -199 -21 -222 0 -211 -4 -211 73 0 23 -5 49 -10 57 -7 11 -10 11
-10 2 0 -26 -91 -110 -143 -132 -71 -31 -179 -38 -260 -16 -92 25 -148 71
-189 153 -31 64 -33 73 -33 178 0 105 2 114 33 177 60 122 174 205 441 319
l156 66 0 140 c0 156 -14 206 -65 236 -41 25 -110 22 -151 -6 -51 -34 -84 -89
-147 -242 l-57 -140 -60 0 -60 0 -3 208 -2 208 32 13 c41 18 214 55 304 66 86
11 216 4 291 -16z m1388 -5 c55 -21 122 -82 150 -139 42 -83 45 -116 45 -605
l0 -470 30 -45 c55 -83 63 -80 -210 -80 -273 0 -265 -3 -210 80 l30 45 0 466
c0 274 -4 488 -10 520 -14 74 -49 109 -107 109 -78 0 -139 -51 -162 -135 -7
-26 -11 -199 -11 -503 l0 -463 25 -37 c14 -20 25 -47 25 -59 l0 -23 -235 0
c-230 0 -235 0 -235 21 0 11 11 37 25 57 l25 37 0 541 0 541 -25 23 c-14 13
-25 34 -25 47 0 13 1 23 3 23 1 0 90 11 197 25 107 13 196 23 197 21 1 -1 6
-35 9 -74 7 -70 7 -71 21 -45 66 128 278 186 448 122z m-7657 -1561 l102 -11
0 -278 0 -279 -63 0 -63 0 -48 138 c-61 171 -99 244 -149 287 -69 59 -183 70
-281 27 -91 -41 -133 -148 -102 -256 27 -91 103 -161 291 -266 83 -46 179
-102 215 -125 78 -50 165 -137 203 -202 64 -112 88 -262 63 -402 -38 -212
-174 -353 -401 -416 -122 -34 -377 -31 -631 6 l-74 11 0 339 0 339 63 0 63 0
48 -147 c113 -347 201 -465 346 -467 74 0 125 19 176 66 61 56 88 124 88 223
0 85 -14 129 -61 198 -36 52 -91 90 -286 196 -194 105 -236 132 -294 193 -150
156 -186 396 -86 580 74 136 253 233 478 259 81 9 254 4 403 -13z m3052 -318
l0 -249 45 48 c64 69 126 94 245 99 80 3 104 0 155 -18 77 -29 144 -95 176
-176 24 -59 24 -60 27 -553 l3 -493 24 -37 c14 -19 25 -46 25 -58 l0 -23 -235
0 c-264 0 -260 -1 -210 72 l25 37 0 511 c0 550 0 548 -52 584 -33 24 -99 20
-139 -7 -19 -12 -45 -43 -59 -67 l-25 -45 -3 -484 -3 -484 26 -38 c14 -21 25
-48 25 -59 0 -19 -6 -20 -235 -20 -230 0 -235 0 -235 21 0 11 11 37 25 57 l25
37 0 725 0 725 -25 37 c-20 30 -33 75 -22 79 8 3 313 26 360 28 l57 1 0 -250z
m-2012 -115 c165 -39 264 -135 292 -284 6 -31 10 -240 10 -500 l0 -446 25 -37
c14 -20 25 -46 25 -57 0 -20 -5 -21 -199 -21 l-199 0 -7 70 -7 70 -28 -38
c-65 -90 -153 -132 -279 -132 -115 0 -174 22 -243 91 -70 70 -92 132 -92 259
2 216 125 340 485 492 l151 63 -4 150 c-3 126 -6 155 -23 182 -32 54 -99 76
-162 52 -65 -24 -108 -90 -189 -289 l-42 -105 -61 -3 -61 -3 0 214 0 215 108
26 c59 14 130 30 157 35 82 14 273 12 343 -4z m1347 -16 l80 -24 3 -222 2
-223 -64 0 -64 0 -37 118 c-82 262 -149 335 -245 269 -44 -29 -66 -68 -89
-159 -51 -200 -54 -647 -6 -814 31 -107 94 -164 181 -164 68 0 94 11 146 59
34 31 68 82 105 159 0 2 19 -6 42 -17 l40 -21 -22 -52 c-33 -81 -97 -168 -150
-204 -68 -47 -134 -64 -243 -64 -250 0 -411 134 -486 407 -19 68 -22 104 -22
278 0 173 3 210 21 276 61 217 179 351 362 406 68 21 91 23 221 19 115 -3 161
-9 225 -27z m2308 10 l67 -12 0 -193 0 -194 -49 0 c-57 0 -51 -6 -108 119 -51
112 -83 161 -121 183 -74 44 -191 30 -242 -28 -26 -30 -30 -43 -30 -90 0 -104
34 -137 285 -275 134 -74 183 -107 231 -155 89 -89 109 -143 109 -299 0 -102
-4 -129 -23 -177 -46 -114 -149 -195 -297 -233 -103 -26 -387 -16 -557 21
l-28 6 0 239 0 240 56 -3 57 -3 41 -110 c77 -203 132 -282 213 -304 120 -34
235 17 262 114 30 111 -6 207 -102 273 -23 16 -114 67 -201 113 -228 120 -288
185 -316 339 -14 75 -1 169 32 234 51 103 170 181 318 210 44 8 333 -2 403
-15z"/>
<path d="M4368 8930 c-32 -25 -64 -98 -78 -181 -18 -99 -25 -528 -11 -674 21
-220 63 -306 150 -309 75 -2 118 52 148 185 22 96 26 682 5 794 -17 92 -55
171 -92 190 -40 21 -93 19 -122 -5z"/>
<path d="M2454 8945 c-29 -20 -61 -98 -76 -186 -18 -106 -18 -707 1 -809 18
-100 37 -145 74 -176 26 -22 38 -25 74 -21 74 8 104 53 131 191 12 62 15 155
16 401 1 407 -14 517 -79 582 -27 27 -41 33 -77 33 -24 0 -53 -7 -64 -15z"/>
<path d="M7683 8440 c-77 -38 -144 -111 -174 -188 -19 -48 -23 -77 -23 -182
-1 -109 2 -131 21 -173 29 -63 78 -87 138 -66 89 31 106 101 103 412 l-3 228
-62 -31z"/>
<path d="M2462 6434 c-79 -39 -147 -120 -173 -205 -27 -90 -25 -281 5 -342 45
-92 153 -88 208 7 22 40 23 49 26 304 2 144 -1 262 -5 262 -5 0 -32 -12 -61
-26z"/>
</g>
</svg>
